<svg width="303" height="103" viewBox="0 0 303 103" fill="none" xmlns="http://www.w3.org/2000/svg">
<path fill-rule="evenodd" clip-rule="evenodd" d="M38.2295 17.8455C38.2295 8.45663 45.8407 0.845459 55.2296 0.845459L285.133 0.845459C294.522 0.845459 302.133 8.45663 302.133 17.8455C302.133 27.2343 294.522 34.8455 285.133 34.8455L192.171 34.8456H177.13C167.741 34.8456 160.13 42.4567 160.13 51.8456C160.13 61.2062 167.695 68.7999 177.045 68.8454H192.171V34.8456H192.171V68.8454H231.442C240.831 68.8454 248.442 76.4566 248.442 85.8454C248.442 95.2343 240.831 102.845 231.442 102.845H17.1333C7.74448 102.845 0.133301 95.2343 0.133301 85.8454C0.133301 76.4566 7.74448 68.8454 17.1333 68.8454H70.6567V34.8455H55.2295C45.8407 34.8455 38.2295 27.2343 38.2295 17.8455ZM85.7885 68.8454H70.657V34.8456H85.6979C95.0867 34.8456 102.698 42.4568 102.698 51.8456C102.698 61.2042 95.1357 68.7966 85.7885 68.8454Z" fill="url(#paint0_linear)"/>
<defs>
<linearGradient id="paint0_linear" x1="-4.68584" y1="58.3257" x2="310.786" y2="66.0674" gradientUnits="userSpaceOnUse">
<stop stop-color="#067D3C"/>
<stop offset="0.449511" stop-color="#08BD59"/>
</linearGradient>
</defs>
</svg>
