<svg width="363" height="103" viewBox="0 0 363 103" fill="none" xmlns="http://www.w3.org/2000/svg">
<path fill-rule="evenodd" clip-rule="evenodd" d="M79.9227 17.8534C79.9227 8.46458 87.5338 0.853424 96.9227 0.853424L345.016 0.853424C354.405 0.853424 362.016 8.46458 362.016 17.8534C362.016 27.2423 354.405 34.8534 345.016 34.8534H220.37C211.002 34.8775 203.415 42.4794 203.415 51.8534C203.415 61.2422 211.026 68.8534 220.415 68.8534H235.498L265.11 68.8534C274.499 68.8534 282.11 76.4646 282.11 85.8534C282.11 95.2423 274.499 102.853 265.11 102.853H17.0163C7.62751 102.853 0.0163574 95.2423 0.0163574 85.8534C0.0163574 76.4646 7.62752 68.8534 17.0164 68.8534H113.823V34.8534H96.9227C87.5338 34.8534 79.9227 27.2423 79.9227 17.8534ZM113.823 34.8534V68.8534H128.906C138.295 68.8534 145.906 61.2422 145.906 51.8534C145.906 42.4778 138.317 34.8749 128.946 34.8534L113.823 34.8534Z" fill="url(#paint0_linear)"/>
<defs>
<linearGradient id="paint0_linear" x1="48.5151" y1="62.8046" x2="354.269" y2="66.1224" gradientUnits="userSpaceOnUse">
<stop stop-color="#067D3C"/>
<stop offset="0.389879" stop-color="#08BD59"/>
</linearGradient>
</defs>
</svg>
